<svg width="30" height="30" viewBox="0 0 30 30" fill="none" xmlns="http://www.w3.org/2000/svg">
<path d="M15.0605 2C7.87055 2 3 10.258 3 13C3 14.1718 3.75887 15.0643 4.61133 15.7168C4.54049 15.8026 4.4668 15.8875 4.41406 15.9824C4.10446 16.5395 4 17.1912 4 18.0078C4 19.8305 5.00004 20.9147 6.10938 21.4746C6.25887 23.3127 7.05873 24.6248 8.05078 25.2949C9.13937 26.0302 10.3102 26.2878 10.5957 26.4434C11.6868 27.0371 12.692 28 15 28C17.308 28 18.3132 27.0371 19.4043 26.4434C19.6898 26.2878 20.8606 26.0302 21.9492 25.2949C22.9413 24.6248 23.7411 23.3127 23.8906 21.4746C25 20.9147 26 19.8305 26 18.0078C26 17.1912 25.8955 16.5395 25.5859 15.9824C25.5483 15.9147 25.4924 15.8562 25.4453 15.793C26.2742 15.1631 27 14.2679 27 13C27 10.258 22.1785 2 15.0605 2ZM16.4141 3.98828L18.334 7.29688L17.1465 7.99023L16.2031 5.32227L15.0469 6.57617L13.7676 5.29688L12.8535 7.93555C12.8535 7.93555 11.698 7.37687 11.668 7.29688C11.637 7.21688 13.6152 4.01562 13.6152 4.01562L14.9844 5.26953L16.4141 3.98828ZM15 11C17.2453 11 19.09 11.5815 20.334 12.2598C20.4651 12.3313 20.5605 12.4036 20.6777 12.4766C19.2679 12.7311 17.2792 13 15 13C12.7184 13 10.7284 12.7314 9.31836 12.4766C9.4371 12.4028 9.53315 12.3281 9.66602 12.2559C10.9101 11.5793 12.7542 11 15 11ZM8 14.252C9.43764 14.5592 11.9611 15 15 15C18.0389 15 20.5624 14.5592 22 14.252V17.4629L23.2734 17.1016C23.4479 17.0521 23.6424 17.034 23.8477 17.0215C23.9009 17.1364 24 17.4341 24 18.0078C24 19.4895 23.3723 19.8278 22.7832 19.959L22 20.1328V21C22 22.6283 21.494 23.1883 20.8301 23.6367C20.1662 24.0852 19.2998 24.223 18.4473 24.6875C17.0503 25.4477 16.818 26 15 26C13.182 26 12.9497 25.4477 11.5527 24.6875C10.7002 24.223 9.83383 24.0852 9.16992 23.6367C8.50601 23.1883 8 22.6283 8 21V20.1328L7.2168 19.959C6.62768 19.8278 6 19.4895 6 18.0078C6 17.4341 6.09911 17.1364 6.15234 17.0215C6.35759 17.034 6.55207 17.0521 6.72656 17.1016L8 17.4629V14.252ZM12 16C11.7348 16 11.4804 16.158 11.2929 16.4393C11.1054 16.7206 11 17.1022 11 17.5C11 17.8978 11.1054 18.2794 11.2929 18.5607C11.4804 18.842 11.7348 19 12 19C12.2652 19 12.5196 18.842 12.7071 18.5607C12.8946 18.2794 13 17.8978 13 17.5C13 17.1022 12.8946 16.7206 12.7071 16.4393C12.5196 16.158 12.2652 16 12 16ZM18 16C17.7348 16 17.4804 16.158 17.2929 16.4393C17.1054 16.7206 17 17.1022 17 17.5C17 17.8978 17.1054 18.2794 17.2929 18.5607C17.4804 18.842 17.7348 19 18 19C18.2652 19 18.5196 18.842 18.7071 18.5607C18.8946 18.2794 19 17.8978 19 17.5C19 17.1022 18.8946 16.7206 18.7071 16.4393C18.5196 16.158 18.2652 16 18 16ZM9.36328 18C9.36328 18 9 18.3263 9 19.7773C9 21.4863 10.1582 21.5723 10.1582 21.5723C10.1582 21.5723 10.2866 23.2285 11.5176 23.2285C12.0496 23.2285 12.3574 22.9664 12.3984 22.9434C12.4674 23.0274 13.0232 24 13.8672 24C14.5232 24 14.9863 23.5312 14.9863 23.5312C14.9863 23.5312 15.4983 23.9746 16.1973 23.9746C16.9913 23.9746 17.6016 22.9609 17.6016 22.9609C17.6016 22.9609 17.9156 23.2266 18.5176 23.2266C19.1196 23.2266 19.7142 22.7267 19.8652 21.5527C20.3542 21.5527 20.998 20.7992 20.998 19.8262C20.998 18.3682 20.6504 18.0176 20.6504 18.0176C20.2864 18.6336 19.0796 19.3069 17.9746 19.7109C17.8446 20.9919 16.57 22 15 22C13.428 22 12.1534 20.989 12.0254 19.707C10.3084 19.07 9.36328 18 9.36328 18Z" fill="#ff6f8f"/>
</svg>
